<svg width="240" height="73" viewBox="0 0 240 73" fill="none" xmlns="http://www.w3.org/2000/svg">
<rect width="240" height="73" fill="#0AC2C9"/>
<path fill-rule="evenodd" clip-rule="evenodd" d="M105.488 22.4785C103.168 22.4785 100.414 22.9637 97.4059 26.4045V16.7753C97.4059 14.3427 95.4046 12.364 92.9443 12.364C90.484 12.364 88.4827 14.3427 88.4827 16.7753V48.1775C88.4827 50.61 90.484 52.5888 92.9443 52.5888C95.4046 52.5888 97.4059 50.61 97.4059 48.1775V35.9897C97.4059 32.4858 99.0886 30.5512 102.154 30.5512C105.156 30.5512 106.737 32.4291 106.737 35.9897V48.1775C106.737 50.61 108.738 52.5888 111.199 52.5888C113.659 52.5888 115.66 50.61 115.66 48.1775V33.4311C115.654 26.5747 111.855 22.4785 105.488 22.4785ZM131.111 22.6928C127.478 22.6928 124.597 23.1592 121.773 24.2053C120.307 24.7473 119.326 26.1463 119.326 27.6839C119.326 29.7383 120.977 31.3453 123.086 31.3453C123.52 31.3453 123.883 31.2823 124.38 31.1185C126.095 30.5891 127.905 30.337 129.925 30.337C134.718 30.337 135.738 32.9523 135.751 35.1643C134.087 34.6286 131.99 34.1371 129.065 34.1371C121.442 34.1371 117.069 37.5842 117.069 43.6025V43.7096C117.069 49.1481 121.2 52.8032 127.344 52.8032C130.805 52.8032 133.578 51.7634 135.789 49.6334C136.165 51.1899 137.676 52.5953 139.996 52.5953C142.437 52.5953 144.349 50.7299 144.349 48.3478V35.347C144.349 31.2571 143.266 28.1062 141.118 25.9887C138.9 23.802 135.534 22.6928 131.111 22.6928ZM129.817 46.4824C127.287 46.4824 125.719 45.2977 125.719 43.3882V43.2811C125.719 41.0061 127.644 39.7079 131.003 39.7079C132.723 39.7079 134.438 40.0419 135.859 40.6469V41.8506C135.859 44.573 133.374 46.4824 129.817 46.4824ZM156.306 26.4805C158.613 23.7896 161.456 22.4788 164.974 22.4788C171.686 22.4788 178.474 27.6653 178.474 37.5844V37.6915C178.474 42.2604 177.053 46.1298 174.369 48.89C171.915 51.417 168.582 52.8035 164.974 52.8035C161.501 52.8035 158.741 51.6313 156.351 49.1358V56.698C156.351 59.1305 154.349 61.1093 151.889 61.1093C149.429 61.1093 147.427 59.1305 147.427 56.698V27.1044C147.427 24.6719 149.429 22.6931 151.889 22.6931C154.139 22.6931 156 24.3442 156.306 26.4805ZM169.557 37.5844C169.557 33.3054 166.683 30.0726 162.871 30.0726C159.034 30.0726 156.242 33.2298 156.242 37.5844V37.6915C156.242 42.0461 159.028 45.2034 162.871 45.2034C166.746 45.2034 169.557 42.0461 169.557 37.6915V37.5844ZM198.08 22.4788C194.561 22.4788 191.719 23.7896 189.411 26.4805C189.105 24.3442 187.244 22.6931 184.994 22.6931C182.534 22.6931 180.533 24.6719 180.533 27.1044V56.698C180.533 59.1305 182.534 61.1093 184.994 61.1093C187.455 61.1093 189.456 59.1305 189.456 56.698V49.1358C191.846 51.6313 194.606 52.8035 198.08 52.8035C201.687 52.8035 205.021 51.417 207.475 48.89C210.158 46.1298 211.579 42.2604 211.579 37.6915V37.5844C211.579 27.6653 204.791 22.4788 198.08 22.4788ZM195.976 30.0726C199.788 30.0726 202.662 33.3054 202.662 37.5844V37.6915C202.662 42.0461 199.852 45.2034 195.976 45.2034C192.133 45.2034 189.348 42.0461 189.348 37.6915V37.5844C189.348 33.2298 192.139 30.0726 195.976 30.0726ZM231.485 26.0203C232.313 23.8399 233.792 22.6929 235.761 22.6929C238.139 22.6929 240.006 24.489 240 26.7702C240 27.4319 239.783 28.3898 239.592 28.831L229.528 52.7277C226.998 58.7838 224.359 60.9327 219.445 60.9327C217.711 60.9327 216.379 60.7059 214.849 60.1639C213.797 59.7858 212.026 58.8027 212.026 56.471C212.026 54.1771 213.855 52.8096 215.62 52.8096C216.321 52.8096 216.742 52.9293 217.08 53.0428C217.775 53.257 218.157 53.3453 218.686 53.3453C220.025 53.3453 220.586 53.131 221.261 51.8517L221.465 51.3728L211.675 28.9444C211.452 28.3898 211.216 27.5328 211.216 26.9341C211.216 24.5142 213.109 22.6866 215.62 22.6866C217.692 22.6866 219.094 23.7579 219.897 25.9636L225.793 41.6364L231.485 26.0203Z" fill="white"/>
<path d="M63.9739 18.5248V44.3009C63.9739 54.5314 55.5339 62.8257 45.1237 62.8257H43.217L33.4805 72.3879C33.0992 72.7627 32.5717 73 31.987 73C31.4467 73 30.9574 72.8064 30.5824 72.4816L30.4172 72.3192L30.4108 72.313L20.7569 62.8257H18.8439C8.44003 62.8257 0 54.5314 0 44.3009V18.5248C0 8.29432 8.44003 0 18.8503 0H45.1237C55.5339 0 63.9739 8.29432 63.9739 18.5248Z" fill="#FFD666"/>
<path d="M14.895 35.7078C13.0392 35.7078 11.9814 37.786 13.0582 39.2866C17.2449 45.1319 24.1677 48.9429 31.99 48.9429C39.8123 48.9429 46.7289 45.1256 50.9155 39.2866C51.9923 37.786 50.9345 35.7078 49.0787 35.7078H14.895Z" fill="white"/>
<path d="M25.764 26.8618H14.5658V21.3116C14.5658 18.2477 17.074 15.7615 20.1649 15.7615C23.2558 15.7615 25.764 18.2477 25.764 21.3116V26.8618Z" fill="white"/>
<path d="M49.4148 26.8618H38.2166V21.3117C38.2166 18.2478 40.7248 15.7615 43.8157 15.7615C46.9066 15.7615 49.4148 18.2478 49.4148 21.3117V26.8618Z" fill="white"/>
</svg>
