<svg width="372" height="128" viewBox="0 0 372 128" fill="none" xmlns="http://www.w3.org/2000/svg">
<rect width="372" height="128" rx="15" fill="#0AC2C9"/>
<path fill-rule="evenodd" clip-rule="evenodd" d="M170.279 48.1736C167.765 48.1736 164.782 48.7386 161.523 52.745V41.5329C161.523 38.7005 159.355 36.3964 156.69 36.3964C154.024 36.3964 151.856 38.7005 151.856 41.5329V78.0971C151.856 80.9295 154.024 83.2336 156.69 83.2336C159.355 83.2336 161.523 80.9295 161.523 78.0971V63.9058C161.523 59.826 163.346 57.5733 166.667 57.5733C169.919 57.5733 171.632 59.76 171.632 63.9058V78.0971C171.632 80.9295 173.8 83.2336 176.465 83.2336C179.131 83.2336 181.299 80.9295 181.299 78.0971V60.9267C181.292 52.9431 177.177 48.1736 170.279 48.1736ZM198.037 48.4232C194.101 48.4232 190.98 48.9662 187.921 50.1843C186.333 50.8153 185.27 52.4443 185.27 54.2347C185.27 56.6269 187.058 58.498 189.343 58.498C189.813 58.498 190.207 58.4246 190.745 58.2338C192.603 57.6175 194.564 57.3239 196.752 57.3239C201.945 57.3239 203.05 60.3691 203.064 62.9447C201.261 62.321 198.99 61.7486 195.82 61.7486C187.562 61.7486 182.825 65.7624 182.825 72.77V72.8948C182.825 79.2273 187.3 83.4832 193.956 83.4832C197.705 83.4832 200.709 82.2725 203.105 79.7923C203.512 81.6047 205.149 83.2411 207.662 83.2411C210.307 83.2411 212.378 81.0691 212.378 78.2954V63.1575C212.378 58.3953 211.204 54.7264 208.877 52.2609C206.475 49.7146 202.829 48.4232 198.037 48.4232ZM196.635 76.1234C193.894 76.1234 192.195 74.7439 192.195 72.5205V72.3958C192.195 69.7468 194.28 68.2353 197.919 68.2353C199.784 68.2353 201.641 68.6242 203.181 69.3286V70.7301C203.181 73.9 200.488 76.1234 196.635 76.1234ZM225.332 52.8335C227.831 49.7002 230.911 48.174 234.722 48.174C241.993 48.174 249.347 54.213 249.347 65.7627V65.8874C249.347 71.2073 247.807 75.7128 244.9 78.9267C242.242 81.8692 238.631 83.4835 234.722 83.4835C230.959 83.4835 227.969 82.1187 225.38 79.2129V88.0183C225.38 90.8506 223.212 93.1547 220.547 93.1547C217.881 93.1547 215.713 90.8506 215.713 88.0183V53.5599C215.713 50.7275 217.881 48.4235 220.547 48.4235C222.984 48.4235 225 50.346 225.332 52.8335ZM239.687 65.7627C239.687 60.7803 236.573 57.016 232.444 57.016C228.287 57.016 225.263 60.6923 225.263 65.7627V65.8874C225.263 70.9579 228.28 74.6341 232.444 74.6341C236.642 74.6341 239.687 70.9579 239.687 65.8874V65.7627ZM270.586 48.174C266.775 48.174 263.695 49.7002 261.196 52.8335C260.864 50.346 258.848 48.4235 256.411 48.4235C253.745 48.4235 251.577 50.7275 251.577 53.5599V88.0183C251.577 90.8506 253.745 93.1547 256.411 93.1547C259.076 93.1547 261.244 90.8506 261.244 88.0183V79.2129C263.833 82.1187 266.823 83.4835 270.586 83.4835C274.494 83.4835 278.106 81.8692 280.764 78.9267C283.671 75.7128 285.211 71.2073 285.211 65.8874V65.7627C285.211 54.213 277.857 48.174 270.586 48.174ZM268.308 57.016C272.437 57.016 275.551 60.7803 275.551 65.7627V65.8874C275.551 70.9579 272.506 74.6341 268.308 74.6341C264.144 74.6341 261.127 70.9579 261.127 65.8874V65.7627C261.127 60.6923 264.151 57.016 268.308 57.016ZM306.775 52.2976C307.673 49.7588 309.275 48.4233 311.408 48.4233C313.984 48.4233 316.007 50.5146 316 53.1708C316 53.9413 315.765 55.0567 315.558 55.5703L304.655 83.3952C301.914 90.4469 299.055 92.9491 293.732 92.9491C291.853 92.9491 290.41 92.6849 288.753 92.0539C287.614 91.6136 285.694 90.4689 285.694 87.7539C285.694 85.0829 287.676 83.4906 289.589 83.4906C290.348 83.4906 290.804 83.6301 291.17 83.7621C291.923 84.0116 292.337 84.1144 292.91 84.1144C294.36 84.1144 294.968 83.8649 295.7 82.3753L295.92 81.8176L285.315 55.7024C285.073 55.0567 284.817 54.0587 284.817 53.3616C284.817 50.5439 286.868 48.4159 289.589 48.4159C291.833 48.4159 293.352 49.6634 294.222 52.2316L300.609 70.4807L306.775 52.2976Z" fill="white"/>
<path d="M125.305 43.57V73.5832C125.305 85.4955 116.162 95.1532 104.884 95.1532H102.818L92.2705 106.287C91.8574 106.724 91.286 107 90.6525 107C90.0673 107 89.5372 106.775 89.1309 106.396L88.9519 106.207L88.945 106.2L78.4866 95.1532H76.4142C65.1434 95.1532 56 85.4955 56 73.5832V43.57C56 31.6578 65.1434 22 76.4211 22H104.884C116.162 22 125.305 31.6578 125.305 43.57Z" fill="#FFD666"/>
<path d="M72.1363 63.5776C70.1258 63.5776 68.9799 65.9974 70.1464 67.7447C74.6819 74.5508 82.1817 78.9883 90.6559 78.9883C99.13 78.9883 106.623 74.5435 111.158 67.7447C112.325 65.9974 111.179 63.5776 109.169 63.5776H72.1363Z" fill="white"/>
<path d="M83.911 53.2775H71.7796V46.8149C71.7796 43.2474 74.4968 40.3524 77.8453 40.3524C81.1938 40.3524 83.911 43.2474 83.911 46.8149V53.2775Z" fill="white"/>
<path d="M109.533 53.2775H97.4013V46.8149C97.4013 43.2474 100.119 40.3524 103.467 40.3524C106.815 40.3524 109.533 43.2474 109.533 46.8149V53.2775Z" fill="white"/>
</svg>
