<svg width="260" height="85" viewBox="0 0 260 85" fill="none" xmlns="http://www.w3.org/2000/svg">
<rect width="260" height="85" rx="15" fill="#0AC2C9"/>
<path fill-rule="evenodd" clip-rule="evenodd" d="M114.279 26.1736C111.765 26.1736 108.782 26.7386 105.523 30.745V19.5329C105.523 16.7005 103.355 14.3964 100.69 14.3964C98.0243 14.3964 95.8562 16.7005 95.8562 19.5329V56.0971C95.8562 58.9295 98.0243 61.2336 100.69 61.2336C103.355 61.2336 105.523 58.9295 105.523 56.0971V41.9058C105.523 37.826 107.346 35.5733 110.667 35.5733C113.919 35.5733 115.632 37.76 115.632 41.9058V56.0971C115.632 58.9295 117.8 61.2336 120.465 61.2336C123.131 61.2336 125.299 58.9295 125.299 56.0971V38.9267C125.292 30.9431 121.177 26.1736 114.279 26.1736ZM142.037 26.4232C138.101 26.4232 134.98 26.9662 131.921 28.1843C130.333 28.8153 129.27 30.4443 129.27 32.2347C129.27 34.6269 131.058 36.498 133.343 36.498C133.813 36.498 134.207 36.4246 134.745 36.2338C136.603 35.6175 138.564 35.3239 140.752 35.3239C145.945 35.3239 147.05 38.3691 147.064 40.9447C145.261 40.321 142.99 39.7486 139.82 39.7486C131.562 39.7486 126.825 43.7624 126.825 50.77V50.8948C126.825 57.2273 131.3 61.4832 137.956 61.4832C141.705 61.4832 144.709 60.2725 147.105 57.7923C147.512 59.6047 149.149 61.2411 151.662 61.2411C154.307 61.2411 156.378 59.0691 156.378 56.2954V41.1575C156.378 36.3953 155.204 32.7264 152.877 30.2609C150.475 27.7146 146.829 26.4232 142.037 26.4232ZM140.635 54.1234C137.894 54.1234 136.195 52.7439 136.195 50.5205V50.3958C136.195 47.7468 138.28 46.2353 141.919 46.2353C143.784 46.2353 145.641 46.6242 147.181 47.3286V48.7301C147.181 51.9 144.488 54.1234 140.635 54.1234ZM169.332 30.8335C171.831 27.7002 174.911 26.174 178.722 26.174C185.993 26.174 193.347 32.213 193.347 43.7627V43.8874C193.347 49.2073 191.807 53.7128 188.9 56.9267C186.242 59.8692 182.631 61.4835 178.722 61.4835C174.959 61.4835 171.969 60.1187 169.38 57.2129V66.0183C169.38 68.8506 167.212 71.1547 164.547 71.1547C161.881 71.1547 159.713 68.8506 159.713 66.0183V31.5599C159.713 28.7275 161.881 26.4235 164.547 26.4235C166.984 26.4235 169 28.346 169.332 30.8335ZM183.687 43.7627C183.687 38.7803 180.573 35.016 176.444 35.016C172.287 35.016 169.263 38.6923 169.263 43.7627V43.8874C169.263 48.9579 172.28 52.6341 176.444 52.6341C180.642 52.6341 183.687 48.9579 183.687 43.8874V43.7627ZM214.586 26.174C210.775 26.174 207.695 27.7002 205.196 30.8335C204.864 28.346 202.848 26.4235 200.411 26.4235C197.745 26.4235 195.577 28.7275 195.577 31.5599V66.0183C195.577 68.8506 197.745 71.1547 200.411 71.1547C203.076 71.1547 205.244 68.8506 205.244 66.0183V57.2129C207.833 60.1187 210.823 61.4835 214.586 61.4835C218.494 61.4835 222.106 59.8692 224.764 56.9267C227.671 53.7128 229.211 49.2073 229.211 43.8874V43.7627C229.211 32.213 221.857 26.174 214.586 26.174ZM212.308 35.016C216.437 35.016 219.551 38.7803 219.551 43.7627V43.8874C219.551 48.9579 216.506 52.6341 212.308 52.6341C208.144 52.6341 205.127 48.9579 205.127 43.8874V43.7627C205.127 38.6923 208.151 35.016 212.308 35.016ZM250.775 30.2976C251.673 27.7588 253.275 26.4233 255.408 26.4233C257.984 26.4233 260.007 28.5146 260 31.1708C260 31.9413 259.765 33.0567 259.558 33.5703L248.655 61.3952C245.914 68.4469 243.055 70.9491 237.732 70.9491C235.853 70.9491 234.41 70.6849 232.753 70.0539C231.614 69.6136 229.694 68.4689 229.694 65.7539C229.694 63.0829 231.676 61.4906 233.589 61.4906C234.348 61.4906 234.804 61.6301 235.17 61.7621C235.923 62.0116 236.337 62.1144 236.91 62.1144C238.36 62.1144 238.968 61.8649 239.7 60.3753L239.92 59.8176L229.315 33.7024C229.073 33.0567 228.817 32.0587 228.817 31.3616C228.817 28.5439 230.868 26.4159 233.589 26.4159C235.833 26.4159 237.352 27.6634 238.222 30.2316L244.609 48.4807L250.775 30.2976Z" fill="white"/>
<path d="M69.3051 21.57V51.5832C69.3051 63.4955 60.1617 73.1532 48.884 73.1532H46.8185L36.2705 84.2873C35.8574 84.7237 35.286 85 34.6525 85C34.0673 85 33.5372 84.7746 33.1309 84.3964L32.9519 84.2073L32.945 84.2L22.4866 73.1532H20.4142C9.14337 73.1532 0 63.4955 0 51.5832V21.57C0 9.65777 9.14337 0 20.4211 0H48.884C60.1617 0 69.3051 9.65777 69.3051 21.57Z" fill="#FFD666"/>
<path d="M16.1363 41.5776C14.1258 41.5776 12.9799 43.9974 14.1464 45.7447C18.6819 52.5508 26.1817 56.9883 34.6559 56.9883C43.13 56.9883 50.6229 52.5435 55.1585 45.7447C56.325 43.9974 55.1791 41.5776 53.1686 41.5776H16.1363Z" fill="white"/>
<path d="M27.911 31.2775H15.7796V24.8149C15.7796 21.2474 18.4968 18.3524 21.8453 18.3524C25.1938 18.3524 27.911 21.2474 27.911 24.8149V31.2775Z" fill="white"/>
<path d="M53.5327 31.2775H41.4013V24.8149C41.4013 21.2474 44.1185 18.3524 47.467 18.3524C50.8155 18.3524 53.5327 21.2474 53.5327 24.8149V31.2775Z" fill="white"/>
</svg>
